# xmcd
#
# Track frame offsets:
#	150
#	49595
#	76171
#	118525
#	182079
#	200902
#	208863
#	243453
#	262704
#	290692
#	307236
#
# Disc length: 4471 seconds
#
# Revision: 0
# Processed by: cddbd v1.4PL0 Copyright (c) Steve Scherf et al.
# Submitted via: audiograbber 1.82.01
#
DISCID=a211750b
DTITLE=Johnny Winter - 1987-03-18 - National Arts Centre, Ottawa, Ontario, Cana
DTITLE=da
DYEAR=1900
DGENRE=
TTITLE0=Johnny Winter - Honky Tonk
TTITLE1=Johnny Winter - Sound The Bell
TTITLE2=Johnny Winter - Don't Take Advantage Of Me
TTITLE3=Johnny Winter - Third Degree
TTITLE4=Johnny Winter - Drums - 3rd Degree outro
TTITLE5=Johnny Winter - Bonie Moronie
TTITLE6=Johnny Winter - Mojo Boogie
TTITLE7=Johnny Winter - Shake Your Moneymaker
TTITLE8=Johnny Winter - Stranger Blues
TTITLE9=Johnny Winter - Johnny B. Goode
TTITLE10=Johnny Winter - Boot Hill
EXTD=
EXTT0=
EXTT1=
EXTT2=
EXTT3=
EXTT4=
EXTT5=
EXTT6=
EXTT7=
EXTT8=
EXTT9=
EXTT10=
PLAYORDER=
